<svg width="525" height="359" viewBox="0 0 525 359" fill="none" xmlns="http://www.w3.org/2000/svg">
<path d="M317.777 0.0262792C317.614 2.96535 317.345 5.90278 316.972 8.8338L319.263 9.00765C319.641 6.04443 319.912 3.07476 320.079 0.101885L317.777 0.0262792ZM315.542 17.5947C314.962 20.5032 314.277 23.4004 313.492 26.2815L315.744 26.6469C316.54 23.7352 317.23 20.8058 317.817 17.8635L315.542 17.5947ZM310.825 34.8686C309.834 37.7111 308.74 40.5327 307.546 43.3269L309.731 43.8822C310.94 41.0558 312.046 38.2037 313.05 35.329L310.825 34.8686ZM303.654 51.6291C302.254 54.367 300.755 57.0743 299.154 59.7446L301.243 60.4898C302.863 57.7889 304.38 55.051 305.795 52.2793L303.654 51.6291ZM294.049 67.6443C292.248 70.2374 290.347 72.7885 288.345 75.2946L290.307 76.2249C292.332 73.6898 294.256 71.1065 296.08 68.4829L294.049 67.6443ZM282.051 82.6599C281.082 83.7206 280.093 84.7717 279.087 85.8115C277.812 87.1281 276.507 88.427 275.171 89.7083L276.966 90.8205C278.319 89.5232 279.64 88.2082 280.932 86.8738C281.952 85.8212 282.952 84.7573 283.933 83.6837L282.051 82.6599ZM267.725 96.4041C265.151 98.5754 262.49 100.682 259.744 102.723L261.34 104.003C264.122 101.936 266.819 99.8003 269.424 97.6032L267.725 96.4041ZM251.26 108.642C248.35 110.544 245.364 112.376 242.306 114.132L243.682 115.556C246.779 113.778 249.803 111.924 252.75 109.995L251.26 108.642ZM232.919 119.17C229.717 120.771 226.453 122.292 223.126 123.728L224.251 125.278C227.621 123.823 230.93 122.283 234.171 120.66L232.919 119.17ZM212.97 127.779C209.526 129.043 206.028 130.215 202.485 131.295L203.33 132.946C206.924 131.852 210.468 130.664 213.959 129.384L212.97 127.779ZM191.713 134.243C188.514 135.024 185.281 135.728 182.021 136.352C181.583 136.436 181.142 136.518 180.704 136.598L181.234 138.325C181.683 138.245 182.129 138.161 182.574 138.076C185.884 137.442 189.163 136.729 192.406 135.937L191.713 134.243ZM169.496 138.245C165.744 138.667 161.951 138.963 158.145 139.129L158.276 140.902C162.15 140.733 166.009 140.431 169.828 140.003L169.496 138.245ZM146.739 139.233C142.925 139.133 139.129 138.898 135.374 138.522L135.078 140.283C138.906 140.667 142.777 140.907 146.661 141.009L146.739 139.233ZM124.171 136.94C120.454 136.255 116.812 135.417 113.274 134.421L112.483 136.088C116.109 137.11 119.836 137.968 123.637 138.667L124.171 136.94ZM102.881 130.892C99.5142 129.537 96.2876 128.01 93.2341 126.303L91.8839 127.741C95.0333 129.5 98.3537 131.074 101.814 132.467L102.881 130.892ZM84.6207 120.647C82.087 118.69 79.7307 116.569 77.581 114.275L77.3181 113.993L75.4418 115.022L75.7131 115.315C77.938 117.687 80.3736 119.881 82.9929 121.903L84.6207 120.647ZM71.7559 106.449C70.2553 103.77 69.1847 100.978 68.7089 98.1714L66.4256 98.4016C66.9328 101.399 68.0681 104.344 69.6439 107.154L71.7559 106.449ZM69.2452 89.6841C70.1427 86.9044 71.827 84.3533 74.0915 82.1144L72.2777 81.023C69.8296 83.439 67.9908 86.2155 67.012 89.256L69.2452 89.6841ZM82.3521 76.4583C85.4994 74.9598 88.9932 73.854 92.6122 73.2279L92.1071 71.496C88.2335 72.1672 84.5081 73.3454 81.1416 74.9469L82.3521 76.4583ZM103.634 72.8577C104.062 72.906 104.488 72.9607 104.913 73.0235C108.151 73.5048 111.237 74.3739 114.115 75.565L115.203 74.0005C112.133 72.7305 108.825 71.797 105.348 71.2803C104.886 71.2127 104.425 71.1532 103.962 71.1L103.634 72.8577ZM122.99 80.7349C125.59 82.7791 127.834 85.121 129.629 87.6528L131.649 86.803C129.754 84.1263 127.387 81.654 124.632 79.4907L122.99 80.7349ZM133.567 95.7007C133.811 96.5521 134.007 97.4101 134.151 98.2744C134.377 99.6281 134.487 100.988 134.487 102.347C134.487 102.994 134.462 103.637 134.412 104.281L136.712 104.386C136.764 103.708 136.789 103.027 136.789 102.347C136.789 100.916 136.675 99.4784 136.435 98.0459C136.282 97.13 136.074 96.219 135.815 95.3161L133.567 95.7007ZM132.377 112.78C131.267 115.529 129.744 118.196 127.865 120.717L129.86 121.602C131.82 118.972 133.415 116.187 134.577 113.308L132.377 112.78ZM121.264 127.744C120.014 128.818 118.69 129.84 117.305 130.802C116.203 131.567 114.673 132.383 112.755 133.2L113.869 134.754C115.898 133.888 117.563 133.011 118.845 132.122C120.293 131.118 121.673 130.051 122.977 128.93L121.264 127.744ZM102.367 136.629C99.1073 137.487 95.4381 138.303 91.4038 139.043L91.936 140.77C96.0351 140.019 99.7751 139.188 103.112 138.309L102.367 136.629ZM80.192 140.765C76.6001 141.219 72.812 141.61 68.8466 141.924L69.0825 143.69C73.0918 143.373 76.9257 142.977 80.5635 142.518L80.192 140.765ZM57.4281 142.584C53.9406 142.713 50.3508 142.782 46.6671 142.782C46.4375 142.782 46.2059 142.782 45.9763 142.781L45.968 144.558C46.2018 144.558 46.4334 144.558 46.6671 144.558C50.3884 144.558 54.0158 144.488 57.5388 144.358L57.4281 142.584ZM34.5245 142.536C30.7886 142.385 26.9776 142.163 23.0998 141.862L22.8702 143.629C26.7835 143.933 30.6321 144.157 34.4035 144.31L34.5245 142.536ZM11.7335 140.765C8.01852 140.337 4.25554 139.835 0.448703 139.254L0 140.996C3.84232 141.583 7.64287 142.09 11.3934 142.521L11.7335 140.765Z" fill="#0A9E88"/>
<path d="M401.725 1.05444C403.991 3.42051 406.16 5.84126 408.228 8.31195L410.163 7.34943C408.067 4.84815 405.872 2.39522 403.576 0.000183105L401.725 1.05444ZM414.128 15.8705C415.992 18.4361 417.753 21.0469 419.411 23.6979L421.485 22.9269C419.809 20.2438 418.025 17.6008 416.136 15.003L414.128 15.8705ZM424.054 31.7602C425.494 34.4852 426.826 37.2424 428.045 40.0286L430.228 39.462C428.992 36.6404 427.644 33.8478 426.187 31.0906L424.054 31.7602ZM431.365 48.4724C432.359 51.3133 433.237 54.1767 433.999 57.0578L436.255 56.7037C435.485 53.7856 434.594 50.8851 433.59 48.0104L431.365 48.4724ZM435.921 65.7511C436.433 68.6548 436.804 71.5858 436.986 74.512L439.286 74.4283C439.1 71.4409 438.722 68.46 438.203 65.5129L435.921 65.7511ZM436.907 83.2858C436.652 86.2136 436.151 89.1092 435.352 91.9436L437.602 92.3203C438.428 89.3909 438.944 86.4084 439.204 83.4033L436.907 83.2858ZM431.996 100.257C431.795 100.629 431.587 101.001 431.372 101.371C430.061 103.624 428.439 105.797 426.557 107.835L428.431 108.865C430.399 106.734 432.098 104.461 433.473 102.097C433.697 101.714 433.914 101.327 434.122 100.94L431.996 100.257ZM419.05 114.275C416.215 116.203 413.106 117.853 409.804 119.136L410.839 120.721C414.331 119.364 417.599 117.628 420.573 115.606L419.05 114.275ZM399.247 121.824C397.509 122.043 395.741 122.157 393.959 122.157C393.591 122.157 393.224 122.152 392.857 122.142C391.323 122.101 389.77 121.949 388.236 121.69L387.745 123.425C389.411 123.705 391.099 123.873 392.777 123.916C393.172 123.927 393.564 123.932 393.959 123.932C395.87 123.932 397.759 123.81 399.619 123.577L399.247 121.824ZM378.27 118.223C375.292 116.483 373.027 114.246 371.971 111.629L369.773 112.155C370.999 115.192 373.597 117.723 376.88 119.64L378.27 118.223ZM372.61 103.563C373.979 101.065 376.369 98.7859 379.309 97.017L377.892 95.6167C374.678 97.553 372.04 100.049 370.489 102.871L372.61 103.563ZM389.204 93.4421C392.049 92.9255 394.983 92.713 397.962 92.713C398.748 92.713 399.537 92.7275 400.326 92.7549L400.433 90.9811C399.608 90.9522 398.786 90.936 397.962 90.936C394.841 90.936 391.727 91.1598 388.676 91.7135L389.204 93.4421ZM411.58 93.8574C412.331 93.9669 413.078 94.0795 413.825 94.197C416.818 94.6654 419.801 95.1821 422.764 95.7438L423.315 94.02C420.321 93.4518 417.309 92.9303 414.283 92.4571C413.529 92.338 412.769 92.2237 412.006 92.1126L411.58 93.8574ZM433.813 98.0713C437.472 98.9179 441.102 99.837 444.7 100.824L445.47 99.1497C441.836 98.1533 438.171 97.2262 434.477 96.3699L433.813 98.0713ZM455.396 103.986C458.925 105.108 462.421 106.296 465.879 107.55L466.858 105.942C463.367 104.677 459.837 103.478 456.273 102.345L455.396 103.986ZM476.127 111.5C479.502 112.879 482.833 114.32 486.12 115.823L487.293 114.296C483.977 112.78 480.612 111.323 477.206 109.931L476.127 111.5ZM495.833 120.509C499.022 122.13 502.161 123.81 505.248 125.545L506.605 124.109C503.489 122.358 500.32 120.663 497.1 119.026L495.833 120.509ZM514.344 130.919C517.32 132.766 520.24 134.666 523.099 136.619L524.627 135.291C521.74 133.319 518.791 131.399 515.788 129.535L514.344 130.919ZM518.365 253.243C514.64 253.074 510.827 252.807 506.955 252.469L506.697 254.235C510.602 254.575 514.454 254.845 518.23 255.017L518.365 253.243ZM495.572 251.322C491.805 250.898 488.009 250.438 484.208 249.966L483.843 251.721C487.65 252.192 491.457 252.654 495.241 253.078L495.572 251.322ZM472.836 248.547C469.008 248.074 465.201 247.613 461.434 247.195L461.104 248.952C464.853 249.369 468.649 249.826 472.47 250.3L472.836 248.547ZM449.972 246.06C446.036 245.728 442.176 245.476 438.424 245.336L438.313 247.109C442.009 247.248 445.823 247.497 449.721 247.824L449.972 246.058V246.06ZM426.799 245.313C422.735 245.476 418.855 245.839 415.203 246.461L415.7 248.194C419.2 247.599 422.957 247.245 426.918 247.087L426.799 245.313ZM404.1 249.509C400.579 250.945 397.436 252.802 394.766 255.154L396.499 256.324C398.974 254.145 401.881 252.424 405.177 251.08L404.1 249.509ZM388.591 262.94C387.029 265.838 386.128 268.806 385.792 271.795L388.086 271.95C388.403 269.132 389.25 266.345 390.717 263.622L388.591 262.94ZM386.395 280.869C387.082 283.796 388.211 286.7 389.688 289.547L391.826 288.889C390.398 286.138 389.317 283.347 388.662 280.553L386.395 280.869ZM394.871 297.618C396.837 300.19 399.039 302.68 401.401 305.059L403.229 303.979C400.919 301.653 398.767 299.219 396.853 296.715L394.871 297.618ZM408.956 311.883C411.699 314.114 414.535 316.191 417.378 318.072L418.878 316.725C416.096 314.884 413.316 312.849 410.628 310.662L408.956 311.883ZM426.64 323.525L426.674 323.541C429.871 325.185 433.1 326.785 436.36 328.341L437.572 326.831C434.335 325.285 431.127 323.696 427.951 322.064L427.92 322.048L426.64 323.525ZM446.271 332.912C449.607 334.396 452.971 335.839 456.36 337.245L457.45 335.681C454.081 334.284 450.738 332.848 447.423 331.374L446.271 332.912ZM466.602 341.351C470.039 342.682 473.499 343.978 476.983 345.242L477.964 343.634C474.497 342.378 471.053 341.089 467.637 339.764L466.602 341.351ZM487.485 348.929C491.002 350.125 494.537 351.29 498.091 352.427L498.974 350.787C495.435 349.655 491.914 348.495 488.414 347.304L487.485 348.929ZM508.792 355.749C512.369 356.829 515.963 357.882 519.572 358.91L520.371 357.244C516.775 356.219 513.194 355.169 509.631 354.096L508.792 355.749Z" fill="#0A9E88"/>
<path d="M330.533 100.529L330.018 100.122C330.016 100.122 322.012 106.151 313.609 112.514C305.198 118.883 296.422 125.561 294.792 126.932C293.632 127.908 293.099 129.007 293.102 130.034C293.102 131.056 293.619 131.994 294.479 132.677C295.335 133.361 296.545 133.791 297.891 133.789C299.11 133.791 300.419 133.438 301.656 132.677C302.854 131.938 305.401 130.087 308.669 127.637C318.458 120.293 334.482 107.716 337.296 105.322C338.247 104.516 338.688 103.587 338.686 102.705C338.667 100.642 336.421 98.8968 333.71 98.8823C332.472 98.8807 331.16 99.2702 330.02 100.118L330.018 100.122L330.533 100.529L331.045 100.941C331.955 100.271 332.865 100.027 333.71 100.024C334.635 100.022 335.513 100.334 336.162 100.833C336.809 101.332 337.208 102.006 337.206 102.705C337.204 103.304 336.93 103.933 336.2 104.558C334.376 106.111 326.616 112.243 318.769 118.315C314.843 121.352 310.89 124.38 307.638 126.82C304.391 129.256 301.817 131.122 300.736 131.784C299.711 132.411 298.741 132.65 297.891 132.65C296.028 132.65 294.586 131.479 294.579 130.034C294.581 129.306 294.942 128.498 295.884 127.702C297.43 126.398 306.25 119.683 314.644 113.328C318.846 110.146 322.947 107.049 325.998 104.748C329.05 102.444 331.045 100.941 331.049 100.938L331.045 100.941L330.533 100.529Z" fill="#0A9E88"/>
<path d="M309.766 115.63C309.764 115.628 308.735 115.179 307.149 114.48C304.768 113.434 301.136 111.833 297.851 110.368C294.57 108.905 291.617 107.567 290.663 107.084C289.849 106.672 289.709 106.347 289.72 106.235C289.72 106.136 289.78 106.025 290.029 105.89C290.271 105.763 290.672 105.663 291.11 105.665L291.538 105.694C295.918 106.294 302.334 107.601 307.638 108.757C310.29 109.335 312.665 109.875 314.379 110.271C316.092 110.667 317.136 110.917 317.14 110.918L317.576 109.829C317.562 109.827 300.756 105.8 291.796 104.572C291.565 104.54 291.335 104.525 291.11 104.525C290.402 104.527 289.739 104.668 289.202 104.945C288.672 105.216 288.24 105.673 288.242 106.235C288.253 106.92 288.839 107.527 289.853 108.039C291.227 108.733 295.994 110.864 300.456 112.842C304.912 114.815 309.036 116.621 309.036 116.621L309.766 115.63Z" fill="#0A9E88"/>
<path d="M315.922 121.232C315.922 121.232 318.264 124.412 320.822 127.849C323.387 131.292 326.151 134.966 327.052 136.027C327.716 136.808 328.501 137.261 329.392 137.27C330.118 137.27 330.711 136.936 331.062 136.528C331.421 136.114 331.604 135.602 331.606 135.056C331.606 134.883 331.587 134.707 331.546 134.53V134.528C329.951 127.619 324.734 114.658 324.729 114.645L323.318 114.983C323.318 114.985 323.642 115.791 324.155 117.113C325.694 121.071 328.924 129.656 330.091 134.728V134.726L330.129 135.056C330.131 135.396 330.001 135.703 329.836 135.89C329.661 136.082 329.517 136.128 329.392 136.128C329.244 136.136 328.822 136.029 328.288 135.401C327.449 134.416 324.658 130.711 322.106 127.282C320.826 125.565 319.601 123.912 318.696 122.687C317.792 121.464 317.207 120.672 317.205 120.668L315.922 121.232Z" fill="#0A9E88"/>
<path d="M298.62 124.327C298.616 124.325 297.155 124.064 295.521 123.77C293.889 123.475 292.084 123.149 291.424 123.021C291.165 122.972 290.907 122.947 290.654 122.947C289.986 122.947 289.369 123.112 288.891 123.406C288.415 123.696 288.07 124.145 288.07 124.66C288.07 125.267 288.54 125.846 289.356 126.29C291.998 127.747 293.935 128.766 293.937 128.768L294.772 127.826C294.766 127.823 292.846 126.812 290.214 125.362C289.644 125.043 289.55 124.797 289.55 124.66C289.55 124.541 289.621 124.419 289.815 124.296C290.005 124.177 290.308 124.087 290.654 124.087L291.065 124.127C292.428 124.39 298.282 125.436 298.287 125.437L298.62 124.327Z" fill="#0A9E88"/>
<path d="M304.23 129.765C304.232 129.767 305.589 134.281 305.929 135.332L305.981 135.648C305.981 135.917 305.864 136.15 305.71 136.297C305.551 136.446 305.393 136.501 305.238 136.501C305.061 136.501 304.742 136.427 304.326 135.989C302.448 133.96 301.137 132.479 301.135 132.474L299.914 133.118C299.916 133.119 301.237 134.613 303.124 136.651C303.7 137.28 304.451 137.642 305.238 137.641C305.904 137.642 306.488 137.377 306.864 137.01C307.246 136.641 307.457 136.163 307.459 135.648C307.459 135.455 307.428 135.255 307.363 135.056C307.198 134.547 306.774 133.155 306.392 131.896C306.01 130.637 305.672 129.509 305.67 129.507L304.23 129.765Z" fill="#0A9E88"/>
<path d="M490.403 164.669L489.764 164.957C492.229 168.196 493.398 171.74 493.398 175.241C493.398 182.233 488.729 189.037 480.347 192.829C476.146 194.728 471.55 195.631 467.011 195.631C457.944 195.629 449.122 192.03 444.205 185.565C441.742 182.325 440.571 178.78 440.571 175.28C440.574 168.289 445.24 161.486 453.624 157.693C457.825 155.794 462.421 154.891 466.96 154.891C476.025 154.893 484.847 158.492 489.764 164.957L490.403 164.669L491.039 164.381C485.847 157.555 476.528 153.752 466.96 153.752C462.166 153.752 457.308 154.706 452.877 156.71C444.026 160.715 439.094 167.901 439.094 175.28C439.094 178.977 440.331 182.724 442.932 186.141C448.123 192.967 457.441 196.771 467.011 196.771C471.802 196.771 476.663 195.816 481.094 193.811C489.943 189.808 494.877 182.621 494.875 175.241C494.875 171.545 493.638 167.798 491.039 164.381L490.403 164.669Z" fill="#0A9E88"/>
<path d="M483.973 167.577L483.334 167.866C485.102 170.19 485.943 172.734 485.943 175.248C485.941 180.266 482.591 185.15 476.574 187.872C473.558 189.235 470.26 189.882 467.002 189.882C460.495 189.88 454.163 187.299 450.633 182.657C448.864 180.331 448.025 177.788 448.025 175.275C448.025 170.256 451.374 165.373 457.393 162.651C460.409 161.288 463.707 160.641 466.965 160.641C473.472 160.641 479.805 163.224 483.334 167.866L483.973 167.577L484.609 167.288C480.804 162.287 473.975 159.5 466.965 159.501C463.452 159.5 459.892 160.2 456.644 161.668C450.16 164.602 446.545 169.869 446.547 175.275C446.547 177.984 447.453 180.73 449.358 183.233C453.161 188.234 459.992 191.023 467.002 191.021C470.513 191.021 474.076 190.323 477.321 188.853C483.806 185.921 487.42 180.654 487.42 175.248C487.42 172.539 486.512 169.793 484.609 167.288L483.973 167.577Z" fill="#0A9E88"/>
<path d="M469.563 174.095L468.926 174.383C469.135 174.66 469.235 174.959 469.235 175.258C469.233 175.856 468.839 176.433 468.123 176.757C467.764 176.92 467.376 176.995 466.987 176.995C466.213 176.995 465.464 176.689 465.047 176.139V176.137C464.836 175.86 464.735 175.561 464.735 175.262C464.738 174.666 465.132 174.087 465.846 173.765C466.207 173.602 466.595 173.527 466.981 173.527C467.756 173.527 468.507 173.832 468.926 174.384V174.383L469.563 174.095L470.2 173.807C469.507 172.896 468.259 172.385 466.981 172.387C466.343 172.385 465.689 172.514 465.099 172.781C463.917 173.316 463.258 174.278 463.258 175.262C463.258 175.756 463.425 176.26 463.771 176.715V176.714C464.464 177.626 465.71 178.136 466.987 178.135C467.628 178.135 468.279 178.008 468.87 177.74C470.053 177.204 470.713 176.244 470.713 175.258C470.713 174.764 470.546 174.262 470.202 173.807H470.2L469.563 174.095Z" fill="#0A9E88"/>
<path d="M468.228 172.464L459.184 163.739C458.955 163.518 458.55 163.46 458.233 163.604C457.915 163.747 457.784 164.046 457.922 164.31L463.459 174.802C463.611 175.093 464.043 175.233 464.421 175.114C464.798 174.996 464.98 174.663 464.828 174.372L461.213 167.521L467.073 173.176C467.328 173.422 467.791 173.462 468.111 173.266C468.43 173.07 468.482 172.711 468.228 172.464Z" fill="#0A9E88"/>
<path d="M469.303 176.155L472.759 182.703L467.003 177.15C466.749 176.905 466.283 176.865 465.964 177.061C465.647 177.257 465.594 177.616 465.849 177.861L474.788 186.485C475.018 186.707 475.423 186.765 475.74 186.622C476.057 186.477 476.189 186.178 476.049 185.915L470.67 175.725C470.516 175.434 470.086 175.294 469.708 175.411C469.33 175.53 469.149 175.864 469.303 176.155Z" fill="#0A9E88"/>
<path d="M166.166 130.23C166.214 130.226 170.482 129.839 177.613 128.363L177.016 126.649C173.512 127.373 170.722 127.829 168.812 128.103C167.856 128.239 167.121 128.331 166.629 128.387C166.383 128.416 166.197 128.436 166.074 128.449L165.898 128.466L166.166 130.23ZM188.696 125.691C192.027 124.779 195.641 123.689 199.478 122.392L198.553 120.766C194.769 122.044 191.206 123.118 187.926 124.019L188.696 125.691ZM209.932 118.529C213.202 117.214 216.577 115.756 220.027 114.14L218.831 112.622C215.427 114.217 212.096 115.656 208.867 116.953L209.932 118.529ZM229.732 109.256C232.796 107.605 235.895 105.826 239.011 103.911L237.577 102.522C234.499 104.413 231.437 106.171 228.411 107.801L229.732 109.256ZM247.842 98.1308C250.632 96.188 253.422 94.131 256.198 91.95L254.556 90.7059C251.811 92.8611 249.054 94.8939 246.299 96.8126L247.842 98.1308ZM264.064 85.4007C264.611 84.9195 265.154 84.4334 265.697 83.9424L263.945 82.79C263.409 83.276 262.871 83.7557 262.332 84.2321L264.064 85.4007Z" fill="#0A9E88"/>
<path d="M67.2101 118.393C64.6179 116.394 62.4015 114.052 60.615 111.477L58.5843 112.314C60.471 115.034 62.8189 117.518 65.5822 119.65L67.2101 118.393ZM56.6787 103.405C55.8814 100.809 55.4662 98.116 55.4662 95.4055C55.4662 95.2107 55.4682 95.0143 55.4724 94.8196L53.1704 94.789C53.1662 94.995 53.1641 95.201 53.1641 95.4055C53.1641 98.256 53.6003 101.084 54.4372 103.814L56.6787 103.403V103.405ZM57.0941 86.2872C58.0979 83.559 59.5797 80.9048 61.575 78.4052L59.6153 77.4748C57.5031 80.1193 55.9378 82.9248 54.8797 85.8011L57.0941 86.2872ZM68.6816 71.7705C71.2946 69.913 74.3271 68.2294 77.8104 66.7711L76.7126 65.2099C73.0686 66.7358 69.8774 68.5063 67.1225 70.4635L68.6816 71.7705Z" fill="#0A9E88"/>
<path d="M435.938 36.8175C435.938 36.8175 436.033 37.0122 436.217 37.3936C436.764 38.538 438.06 41.321 439.613 45.192L441.813 44.6673C439.723 39.4572 438.093 36.1929 438.085 36.1784L435.938 36.8175ZM442.743 53.7034C443.643 56.3914 444.528 59.2919 445.321 62.3163L447.577 61.9638C446.776 58.904 445.882 55.9745 444.972 53.2592L442.743 53.7034ZM447.239 71.0176C447.75 73.9245 448.128 76.8683 448.316 79.7849L450.616 79.6964C450.426 76.7219 450.04 73.7281 449.522 70.7777L447.241 71.0176H447.239ZM448.239 88.5555C448.197 89.019 448.147 89.4794 448.091 89.9365L450.382 90.1055C450.441 89.6323 450.491 89.1574 450.535 88.681L448.239 88.5555Z" fill="#0A9E88"/>
<path d="M372.228 283.45C371.823 285.383 371.625 287.403 371.625 289.489C371.625 290.48 371.669 291.486 371.759 292.505L374.054 292.386C373.969 291.404 373.927 290.438 373.927 289.489C373.927 287.49 374.117 285.563 374.501 283.733L372.228 283.45ZM373.551 301.416C374.426 304.248 375.593 307.125 377.037 309.999L379.184 309.357C377.776 306.553 376.64 303.754 375.791 301.004L373.551 301.416ZM381.9 318.162C383.697 320.763 385.719 323.33 387.956 325.828L389.852 324.819C387.664 322.377 385.688 319.868 383.93 317.326L381.9 318.162ZM395.103 332.913C397.638 335.151 400.362 337.295 403.265 339.316L404.808 337.998C401.973 336.026 399.314 333.931 396.837 331.745L395.103 332.913ZM412.377 344.913C413.179 345.344 413.989 345.766 414.811 346.178L416.067 344.69C415.266 344.288 414.475 343.878 413.694 343.458L412.377 344.913Z" fill="#0A9E88"/>
<path d="M183.455 104.081H182.716C182.714 104.969 181.781 105.689 180.629 105.691C179.475 105.689 178.542 104.969 178.54 104.081C178.542 103.192 179.475 102.471 180.629 102.471C181.781 102.471 182.714 103.192 182.716 104.081H183.455H184.194C184.194 102.561 182.598 101.33 180.629 101.33C178.659 101.33 177.062 102.561 177.062 104.081C177.062 105.6 178.659 106.83 180.629 106.83C182.598 106.83 184.194 105.6 184.194 104.081H183.455Z" fill="#0A9E88"/>
<path d="M212.203 88.4529H211.462C211.462 90.2041 210.544 91.7831 209.058 92.9323C207.567 94.08 205.52 94.7866 203.249 94.7866C200.978 94.7866 198.929 94.08 197.441 92.9323C195.953 91.7831 195.034 90.2041 195.034 88.4529C195.034 86.7017 195.953 85.1211 197.441 83.9735C198.929 82.8258 200.978 82.1177 203.249 82.1177C205.518 82.1177 207.567 82.8258 209.058 83.9735C210.544 85.1211 211.462 86.7017 211.462 88.4529H212.203H212.942C212.942 84.3244 208.601 80.9781 203.249 80.9781C197.896 80.9781 193.557 84.3244 193.555 88.4529C193.557 92.5814 197.896 95.9277 203.249 95.9277C208.601 95.9277 212.942 92.5814 212.942 88.4529H212.203Z" fill="#0A9E88"/>
<path d="M412.124 151.916H411.385C411.381 153.352 409.874 154.512 408.012 154.516C406.153 154.512 404.646 153.352 404.642 151.916C404.646 150.481 406.153 149.318 408.012 149.315C409.874 149.318 411.381 150.481 411.385 151.916H412.124H412.863C412.863 149.85 410.692 148.176 408.012 148.176C405.335 148.176 403.164 149.85 403.164 151.916C403.164 153.981 405.335 155.655 408.012 155.655C410.692 155.655 412.863 153.981 412.863 151.916H412.124Z" fill="#0A9E88"/>
<path d="M409.38 82.6989H408.641C408.641 84.4388 407.727 86.0098 406.25 87.1526C404.768 88.2921 402.731 88.9971 400.475 88.9971C398.216 88.9971 396.177 88.2921 394.698 87.1526C393.22 86.0098 392.306 84.4388 392.306 82.6989C392.306 80.9573 393.22 79.3848 394.698 78.2436C396.177 77.1024 398.216 76.3991 400.475 76.3975C402.731 76.3991 404.768 77.1024 406.25 78.2436C407.727 79.3848 408.641 80.9573 408.641 82.6989H409.38H410.119C410.119 78.5897 405.801 75.2595 400.475 75.2579C395.144 75.2595 390.828 78.5897 390.828 82.6989C390.828 86.8065 395.146 90.1367 400.475 90.1367C405.801 90.1367 410.119 86.8065 410.119 82.6989H409.38Z" fill="#0A9E88"/>
<path d="M445.015 289.824H444.274C444.272 290.969 443.07 291.894 441.588 291.898C440.104 291.894 438.904 290.969 438.9 289.824C438.904 288.682 440.104 287.754 441.588 287.753C443.07 287.754 444.272 288.682 444.274 289.824H445.015H445.753C445.751 288.051 443.888 286.613 441.588 286.613C439.288 286.613 437.422 288.051 437.422 289.824C437.422 291.6 439.288 293.037 441.588 293.037C443.888 293.037 445.751 291.6 445.753 289.824H445.015Z" fill="#0A9E88"/>
<path d="M351.147 313.339H350.408C350.408 315.006 349.533 316.511 348.116 317.606C346.697 318.699 344.746 319.373 342.583 319.373C338.261 319.367 334.767 316.671 334.759 313.339C334.759 311.67 335.633 310.165 337.051 309.07C338.47 307.977 340.421 307.303 342.583 307.303C344.746 307.303 346.697 307.977 348.116 309.07C349.533 310.165 350.408 311.67 350.408 313.339H351.147H351.886C351.886 309.376 347.722 306.163 342.583 306.163C337.445 306.163 333.281 309.376 333.281 313.339C333.281 317.302 337.445 320.513 342.583 320.513C347.722 320.513 351.886 317.302 351.886 313.339H351.147Z" fill="#0A9E88"/>
<path d="M348.405 342.136H347.666C347.664 343.572 346.157 344.734 344.296 344.736C342.434 344.734 340.927 343.572 340.923 342.136C340.927 340.699 342.434 339.538 344.296 339.535C346.157 339.538 347.664 340.699 347.666 342.136H348.405H349.146C349.144 340.07 346.973 338.396 344.296 338.396C341.616 338.396 339.445 340.07 339.445 342.136C339.445 344.201 341.616 345.875 344.296 345.877C346.973 345.875 349.144 344.201 349.146 342.136H348.405Z" fill="#0A9E88"/>
<path d="M127.786 159.314H127.047C127.043 161.332 124.925 162.966 122.306 162.969C119.688 162.966 117.57 161.332 117.566 159.314C117.57 157.294 119.688 155.66 122.306 155.655C124.925 155.66 127.043 157.294 127.047 159.314H127.786H128.527C128.525 156.663 125.741 154.516 122.306 154.516C118.87 154.516 116.086 156.663 116.086 159.314C116.088 161.963 118.87 164.11 122.306 164.11C125.741 164.11 128.525 161.963 128.527 159.314H127.786Z" fill="#0A9E88"/>
</svg>
