<svg width="64" height="64" viewBox="0 0 64 64" fill="none" xmlns="http://www.w3.org/2000/svg">
<g clip-path="url(#clip0_199_1293)">
<path d="M33.1656 56.4751C34.7731 57.9375 37.365 60.6375 37.3027 62.8125C37.3027 62.9125 37.2902 63.0125 37.2902 63.125C37.0659 65.5999 34.9475 67.0124 32.4179 66.9999C29.3026 66.9874 27.4459 64.8999 27.5954 62.525C27.7201 60.5 30.15 57.9375 31.6329 56.5751C31.9195 56.3126 31.9693 56.2376 32.3307 56.1251C32.7544 56.1251 32.8167 56.1626 33.1656 56.4751ZM49.876 11.4132C47.8448 8.2007 45.066 6.33822 41.9881 4.90074C38.8105 3.56326 35.1843 2.97576 32.4428 3.00076C26.9475 3.00076 23.5705 4.65074 22.3368 5.16324C15.6576 8.65069 11.8196 13.9006 12.0065 22.8255C12.8913 33.1004 24.0939 44.8252 31.421 52.0501C31.6329 52.2501 31.9818 52.6126 32.1936 52.6876L32.6048 52.7001C32.8665 52.6126 32.8291 52.6376 33.041 52.4376C39.5582 46.2877 50.5738 34.2129 52.4679 25.4755C53.3402 20.5755 52.8542 16.4131 49.876 11.4132ZM31.7949 46.9877C28.3057 40.6003 23.6702 30.6504 23.1593 23.363C22.7356 17.4256 24.5798 6.96321 31.7949 6.27572V46.9877ZM49.4773 25.5005C47.4336 32.6004 39.8448 41.5003 34.6609 46.7877C38.1251 40.3003 42.7856 30.1254 43.0348 22.8005C43.2342 17.0631 41.8136 9.57568 37.0535 6.37572C48.119 8.66319 51.4461 18.6381 49.4773 25.5005Z" fill="#0A9E88"/>
</g>
<defs>
<clipPath id="clip0_199_1293">
<rect width="64" height="64" fill="white"/>
</clipPath>
</defs>
</svg>
