<svg width="64" height="64" viewBox="0 0 64 64" fill="none" xmlns="http://www.w3.org/2000/svg">
<path d="M58.6667 35.9993V55.9994C58.6667 57.4721 57.4728 58.666 56 58.666H53.3333C51.8605 58.666 50.6667 57.4721 50.6667 55.9994V53.3327H13.3333V55.9994C13.3333 57.4721 12.1394 58.666 10.6667 58.666H8C6.52725 58.666 5.33333 57.4721 5.33333 55.9994V35.9993L2.0199 35.1711C0.832792 34.8743 0 33.8076 0 32.5839V30.666C0 29.9298 0.596955 29.3327 1.33333 29.3327H6.33333L12.0356 14.1267C12.8162 12.0451 14.8062 10.666 17.0293 10.666H46.9707C49.1939 10.666 51.1837 12.0451 51.9645 14.1267L57.6667 29.3327H62.6667C63.4029 29.3327 64 29.9298 64 30.666V32.5839C64 33.8076 63.1672 34.8743 61.98 35.1711L58.6667 35.9993ZM10.6667 39.9993V45.3327C10.6667 46.8055 11.8606 47.9994 13.3333 47.9994H21.9866C22.2059 47.9994 22.4218 47.9452 22.6152 47.8418C23.2645 47.4946 23.5094 46.6868 23.1622 46.0375C21.0097 42.0121 16.8446 39.9993 10.6667 39.9993ZM53.3333 39.9993C47.1555 39.9993 42.9901 42.0121 40.8376 46.0375C40.4904 46.6868 40.7355 47.4946 41.3848 47.8418C41.5781 47.9452 41.7941 47.9994 42.0133 47.9994H50.6667C52.1395 47.9994 53.3333 46.8055 53.3333 45.3327V39.9993ZM16 15.9993L11.8366 28.4895C11.746 28.7612 11.6998 29.046 11.6998 29.3327C11.6998 30.8055 12.8937 31.9993 14.3665 31.9993H49.6336C49.9203 31.9993 50.2048 31.9532 50.4768 31.8625C51.8739 31.3967 52.6291 29.8865 52.1635 28.4895L48 15.9993H16Z" fill="#0A9E88"/>
</svg>
