<svg width="64" height="64" viewBox="0 0 64 64" fill="none" xmlns="http://www.w3.org/2000/svg">
<path d="M38.7926 29.175L27.5401 25.225C26.2378 24.775 25.3313 23.3125 25.3313 21.6875C25.3313 19.65 26.7066 18 28.4049 18H35.3126C36.5837 18 37.834 18.4625 38.8759 19.3125C39.5115 19.825 40.3658 19.7 40.9076 19.0625L44.5334 14.8125C45.2731 13.95 45.1689 12.5125 44.3458 11.75C41.7932 9.35 38.605 8.0125 35.3335 8V2C35.3335 0.9 34.5833 0 33.6665 0H30.3324C29.4155 0 28.6654 0.9 28.6654 2V8H28.4049C21.7681 8 16.4336 14.8375 17.0483 22.95C17.4859 28.7125 21.1533 33.4 25.7793 35.025L36.4587 38.775C37.7611 39.2375 38.6675 40.6875 38.6675 42.3125C38.6675 44.35 37.2922 46 35.5939 46H28.6862C27.4151 46 26.1648 45.5375 25.1229 44.6875C24.4874 44.175 23.633 44.3 23.0913 44.9375L19.4655 49.1875C18.7257 50.05 18.8299 51.4875 19.653 52.25C22.2057 54.65 25.3938 55.9875 28.6654 56V62C28.6654 63.1 29.4155 64 30.3324 64H33.6665C34.5833 64 35.3335 63.1 35.3335 62V55.975C40.1887 55.8625 44.7417 52.4 46.3463 46.8875C48.5863 39.1875 44.8251 31.2875 38.7926 29.175Z" fill="#0A9E88"/>
</svg>
