<svg width="64" height="64" viewBox="0 0 64 64" fill="none" xmlns="http://www.w3.org/2000/svg">
<path d="M57.9969 38C57.9969 52.3625 46.3601 64 31.9984 64C17.6368 64 6 52.3625 6 38C6 25 15.5369 14.225 27.9987 12.3125V8H24.4989C23.6739 8 22.999 7.325 22.999 6.5V1.5C22.999 0.675 23.6739 0 24.4989 0H39.498C40.3229 0 40.9979 0.675 40.9979 1.5V6.5C40.9979 7.325 40.3229 8 39.498 8H35.9982V12.3125C40.6854 13.0375 44.9602 15.0125 48.4599 17.8875L51.8972 14.45C52.4847 13.8625 53.4347 13.8625 54.0221 14.45L57.5594 17.9875C58.1469 18.575 58.1469 19.525 57.5594 20.1125L53.8846 23.7875L53.8096 23.8625C56.4595 27.9125 57.9969 32.775 57.9969 38ZM35.9982 42.5V23.5625C35.9982 22.7375 35.3232 22.0625 34.4983 22.0625H29.4986C28.6736 22.0625 27.9987 22.7375 27.9987 23.5625V42.5C27.9987 43.325 28.6736 44 29.4986 44H34.4983C35.3232 44 35.9982 43.325 35.9982 42.5Z" fill="#0A9E88"/>
</svg>
